<svg xmlns="http://www.w3.org/2000/svg" viewBox="0 0 30.6 30.6" fill="black" ><path d="M26.3 23.2c-0.8-1.4-2.1-2.4-3.4-2.7 -1.1-0.3-2.1-0.2-3.1 0.3l-2.8-4.9c1.7-3.5 5.6-11.2 6.3-12.5C24.3 1.9 22.6 0 22.6 0l-7.4 12.9L7.9 0c0 0-1.6 1.9-0.7 3.5 0.7 1.2 4.6 9 6.3 12.5l-2.8 4.9c-0.9-0.5-2-0.6-3.1-0.3 -1.3 0.4-2.6 1.3-3.4 2.7 -1.5 2.5-0.9 5.6 1.2 6.8 0.9 0.5 2 0.6 3.1 0.3 1.3-0.4 2.6-1.3 3.4-2.7 0.4-0.6 0.6-1.3 0.7-1.9v0c0 0 0 0 0 0 0-0.1 0-0.1 0-0.2 0.6-4 1.7-6.1 2.5-7.1 0.8 1 1.9 3.1 2.5 7.1 0 0.1 0 0.1 0 0.2 0 0 0 0 0 0v0c0.1 0.6 0.4 1.3 0.7 1.9 0.8 1.4 2.1 2.4 3.4 2.7 1.1 0.3 2.2 0.2 3.1-0.3C27.2 28.8 27.8 25.8 26.3 23.2zM9.9 26.5c-0.5 0.8-1.2 1.4-1.9 1.6 -0.3 0.1-0.8 0.1-1.3-0.1 -1-0.6-1.1-2.2-0.3-3.6 0.5-0.8 1.2-1.4 2-1.6 0.3-0.1 0.8-0.1 1.3 0.1C10.5 23.5 10.7 25.1 9.9 26.5zM23.9 28c-0.5 0.3-0.9 0.2-1.3 0.1 -0.8-0.2-1.5-0.8-1.9-1.6 -0.8-1.4-0.6-3 0.3-3.6 0.5-0.3 1-0.2 1.3-0.1 0.8 0.2 1.5 0.8 1.9 1.6C25 25.8 24.9 27.4 23.9 28z"/></svg>